<svg width="673" height="670" viewBox="0 0 673 670" fill="none" xmlns="http://www.w3.org/2000/svg">
<g id="undraw_cloud_hosting_7xb1 1" clip-path="url(#clip0_1_2)">
<g id="azure">
<g id="Group">
<path id="Vector" d="M167.23 452.944H304.899C328.222 452.944 347.129 471.851 347.129 495.174V605.607C347.129 628.93 328.222 647.837 304.899 647.837H167.23C143.907 647.837 125 628.93 125 605.607V495.174C125 471.851 143.907 452.944 167.23 452.944V452.944Z" fill="white"/>
<path id="Vector_2" d="M124 605.607V495.174C124 471.337 143.393 451.944 167.23 451.944H304.899C328.736 451.944 348.129 471.337 348.129 495.174V605.607C348.129 629.444 328.736 648.836 304.899 648.836H167.23C143.393 648.836 124 629.444 124 605.607V605.607ZM167.23 453.944C144.496 453.944 126 472.44 126 495.174V605.607C126 628.341 144.496 646.836 167.23 646.836H304.899C327.633 646.836 346.129 628.341 346.129 605.607V495.174C346.129 472.44 327.633 453.944 304.899 453.944H167.23Z" fill="#3F3D56"/>
</g>
<g id="Group_2">
<path id="Vector_3" d="M218.701 501.297H249.536L217.526 596.14C216.851 598.138 214.977 599.484 212.868 599.484H188.871C186.16 599.485 183.962 597.287 183.961 594.576C183.961 594.042 184.048 593.512 184.219 593.007L214.042 504.641C214.716 502.642 216.591 501.296 218.701 501.295V501.297L218.701 501.297H218.701Z" fill="url(#paint0_linear_1_2)"/>
<path id="Vector_4" d="M263.509 564.911H214.612C213.362 564.91 212.347 565.922 212.346 567.172C212.345 567.801 212.606 568.401 213.066 568.83L244.487 598.157C245.402 599.01 246.606 599.485 247.857 599.484H275.545L263.509 564.911V564.911Z" fill="#0078D4"/>
<path id="Vector_5" d="M218.701 501.297C216.566 501.288 214.674 502.67 214.031 504.706L184.256 592.926C183.341 595.475 184.666 598.282 187.215 599.196C187.75 599.388 188.315 599.486 188.884 599.484H213.501C215.367 599.151 216.91 597.839 217.539 596.05L223.477 578.55L244.687 598.333C245.576 599.068 246.691 599.475 247.844 599.484H275.429L263.331 564.911L228.062 564.92L249.648 501.297H218.701L218.701 501.296L218.701 501.297Z" fill="url(#paint1_linear_1_2)"/>
<path id="Vector_6" d="M258.086 504.636C257.412 502.64 255.54 501.296 253.434 501.297H219.068C221.174 501.297 223.046 502.64 223.72 504.636L253.544 593.005C254.411 595.575 253.032 598.36 250.462 599.228C249.956 599.398 249.426 599.485 248.892 599.485H283.259C285.971 599.485 288.169 597.286 288.168 594.574C288.168 594.041 288.081 593.511 287.91 593.005L258.086 504.636V504.636V504.636Z" fill="url(#paint2_linear_1_2)"/>
</g>
</g>
<g id="aws">
<g id="Group_3">
<path id="Vector_7" d="M43.23 206.944H180.899C204.222 206.944 223.129 225.851 223.129 249.174V359.607C223.129 382.93 204.222 401.837 180.899 401.837H43.23C19.9071 401.837 1.00008 382.93 1.00008 359.607V249.174C1.00008 225.851 19.9071 206.944 43.23 206.944V206.944V206.944Z" fill="white"/>
<path id="Vector_8" d="M0 359.607V249.175C0 225.338 19.3931 205.945 43.23 205.945H180.899C204.736 205.945 224.129 225.338 224.129 249.175V359.607C224.129 383.444 204.736 402.837 180.899 402.837H43.23C19.3931 402.837 0 383.444 0 359.607ZM43.23 207.945C20.4956 207.945 2 226.44 2 249.175V359.607C2 382.342 20.4956 400.837 43.23 400.837H180.899C203.633 400.837 222.129 382.342 222.129 359.607V249.175C222.129 226.44 203.633 207.945 180.899 207.945H43.23V207.945V207.945Z" fill="#3F3D56"/>
</g>
<g id="Group_4">
<path id="Vector_9" d="M84.5689 306.08C84.5689 307.631 84.7366 308.889 85.03 309.811C85.3653 310.733 85.7844 311.739 86.3711 312.828C86.5807 313.164 86.6645 313.499 86.6645 313.792C86.6645 314.211 86.413 314.63 85.8682 315.05L83.2278 316.81C82.8505 317.061 82.4733 317.187 82.138 317.187C81.7189 317.187 81.2998 316.977 80.8807 316.6C80.2939 315.972 79.791 315.301 79.3719 314.63C78.9528 313.918 78.5336 313.122 78.0726 312.158C74.8035 316.013 70.6962 317.941 65.7506 317.941C62.23 317.941 59.4219 316.936 57.3682 314.924C55.3146 312.912 54.2668 310.23 54.2668 306.877C54.2668 303.314 55.5241 300.422 58.0807 298.243C60.6373 296.063 64.0322 294.974 68.3491 294.974C69.7741 294.974 71.241 295.1 72.7917 295.309C74.3425 295.519 75.9351 295.854 77.6116 296.231V293.172C77.6116 289.986 76.941 287.765 75.6417 286.466C74.3006 285.166 72.0373 284.538 68.8101 284.538C67.3432 284.538 65.8344 284.705 64.2837 285.083C62.7329 285.46 61.2241 285.921 59.7572 286.508C59.0866 286.801 58.5837 286.969 58.2903 287.053C57.9969 287.136 57.7873 287.178 57.6197 287.178C57.0329 287.178 56.7395 286.759 56.7395 285.879V283.825C56.7395 283.155 56.8234 282.652 57.0329 282.358C57.2425 282.065 57.6197 281.772 58.2065 281.478C59.6734 280.724 61.4337 280.095 63.4873 279.592C65.541 279.047 67.7204 278.796 70.0255 278.796C75.013 278.796 78.6593 279.927 81.0064 282.191C83.3115 284.454 84.4851 287.891 84.4851 292.501V306.08H84.5689L84.5689 306.08L84.5689 306.08ZM67.5528 312.451C68.9359 312.451 70.3609 312.2 71.8697 311.697C73.3785 311.194 74.7197 310.272 75.8513 309.014C76.5219 308.218 77.0248 307.338 77.2763 306.332C77.5278 305.326 77.6954 304.111 77.6954 302.686V300.925C76.48 300.632 75.1807 300.38 73.8395 300.213C72.4984 300.045 71.1991 299.961 69.8998 299.961C67.0918 299.961 65.0381 300.506 63.655 301.638C62.2719 302.769 61.6013 304.362 61.6013 306.458C61.6013 308.428 62.1043 309.894 63.1521 310.9C64.1579 311.948 65.6248 312.451 67.5528 312.451L67.5528 312.451H67.5528ZM101.208 316.977C100.453 316.977 99.9505 316.852 99.6152 316.558C99.2799 316.307 98.9865 315.72 98.7351 314.924L88.8858 282.526C88.6344 281.688 88.5086 281.143 88.5086 280.85C88.5086 280.179 88.8439 279.802 89.5145 279.802H93.6218C94.4182 279.802 94.963 279.928 95.2564 280.221C95.5917 280.472 95.8432 281.059 96.0946 281.855L103.136 309.601L109.674 281.855C109.884 281.017 110.135 280.472 110.47 280.221C110.806 279.969 111.392 279.802 112.147 279.802H115.5C116.296 279.802 116.841 279.928 117.176 280.221C117.512 280.472 117.805 281.059 117.973 281.855L124.595 309.936L131.845 281.855C132.097 281.017 132.39 280.472 132.684 280.221C133.019 279.969 133.564 279.802 134.318 279.802H138.216C138.886 279.802 139.264 280.137 139.264 280.85C139.264 281.059 139.222 281.269 139.18 281.52C139.138 281.772 139.054 282.107 138.886 282.568L128.786 314.966C128.534 315.804 128.241 316.349 127.906 316.6C127.57 316.852 127.025 317.019 126.313 317.019H122.709C121.912 317.019 121.367 316.894 121.032 316.6C120.697 316.307 120.403 315.762 120.236 314.924L113.739 287.891L107.285 314.882C107.075 315.72 106.824 316.265 106.489 316.558C106.153 316.852 105.567 316.977 104.812 316.977H101.208L101.208 316.977H101.208ZM155.064 318.109C152.885 318.109 150.706 317.858 148.61 317.355C146.514 316.852 144.88 316.307 143.79 315.678C143.12 315.301 142.659 314.882 142.491 314.505C142.323 314.127 142.239 313.708 142.239 313.331V311.194C142.239 310.314 142.575 309.894 143.203 309.894C143.455 309.894 143.706 309.936 143.958 310.02C144.209 310.104 144.586 310.272 145.006 310.439C146.431 311.068 147.981 311.571 149.616 311.906C151.292 312.241 152.927 312.409 154.603 312.409C157.244 312.409 159.297 311.948 160.722 311.026C162.147 310.104 162.902 308.763 162.902 307.044C162.902 305.871 162.525 304.907 161.77 304.111C161.016 303.314 159.591 302.602 157.537 301.931L151.46 300.045C148.4 299.081 146.137 297.656 144.754 295.77C143.371 293.926 142.659 291.872 142.659 289.693C142.659 287.933 143.036 286.382 143.79 285.041C144.545 283.7 145.55 282.526 146.808 281.604C148.065 280.64 149.49 279.928 151.167 279.425C152.843 278.922 154.603 278.712 156.447 278.712C157.37 278.712 158.334 278.754 159.256 278.88C160.22 279.005 161.1 279.173 161.98 279.341C162.818 279.55 163.614 279.76 164.369 280.011C165.123 280.263 165.71 280.514 166.129 280.766C166.716 281.101 167.135 281.436 167.386 281.814C167.638 282.149 167.764 282.61 167.764 283.197V285.167C167.764 286.047 167.428 286.508 166.8 286.508C166.464 286.508 165.92 286.34 165.207 286.005C162.818 284.915 160.136 284.37 157.16 284.37C154.771 284.37 152.885 284.747 151.586 285.544C150.286 286.34 149.616 287.555 149.616 289.274C149.616 290.447 150.035 291.453 150.873 292.25C151.712 293.046 153.262 293.842 155.484 294.555L161.435 296.441C164.453 297.405 166.632 298.746 167.931 300.464C169.231 302.183 169.859 304.153 169.859 306.332C169.859 308.134 169.482 309.769 168.77 311.194C168.015 312.619 167.009 313.876 165.71 314.882C164.411 315.93 162.86 316.684 161.058 317.229C159.172 317.816 157.202 318.109 155.064 318.109H155.064L155.064 318.109Z" fill="#252F3E"/>
<g id="Group_5">
<path id="Vector_10" fill-rule="evenodd" clip-rule="evenodd" d="M162.986 338.478C149.197 348.663 129.163 354.069 111.937 354.069C87.7961 354.069 66.044 345.142 49.6146 330.305C48.3153 329.132 49.4888 327.539 51.0396 328.461C68.8101 338.772 90.73 345.016 113.404 345.016C128.702 345.016 145.509 341.831 160.974 335.293C163.279 334.245 165.249 336.802 162.986 338.478L162.986 338.478V338.478Z" fill="#FF9900"/>
<path id="Vector_11" fill-rule="evenodd" clip-rule="evenodd" d="M168.728 331.94C166.967 329.677 157.076 330.85 152.592 331.395C151.25 331.563 151.041 330.389 152.256 329.509C160.136 323.977 173.086 325.569 174.595 327.413C176.104 329.3 174.176 342.25 166.8 348.453C165.668 349.417 164.578 348.914 165.081 347.657C166.758 343.508 170.488 334.161 168.728 331.94H168.728H168.728Z" fill="#FF9900"/>
</g>
</g>
</g>
<g id="cloud">
<g id="Group_6">
<path id="Vector_12" d="M492.23 22.9994H629.899C653.222 22.9994 672.129 41.9063 672.129 65.2293V175.662C672.129 198.985 653.222 217.892 629.899 217.892H492.23C468.907 217.892 450 198.985 450 175.662V65.2293C450 41.9063 468.907 22.9994 492.23 22.9994V22.9994Z" fill="white"/>
<path id="Vector_13" d="M448 174.663V64.23C448 40.3931 467.393 21 491.23 21H628.899C652.736 21 672.129 40.3931 672.129 64.23V174.663C672.129 198.5 652.736 217.892 628.899 217.892H491.23C467.393 217.892 448 198.5 448 174.663V174.663ZM491.23 23C468.496 23 450 41.4956 450 64.23V174.663C450 197.397 468.496 215.892 491.23 215.892H628.899C651.633 215.892 670.129 197.397 670.129 174.663V64.23C670.129 41.4956 651.633 23 628.899 23H491.23V23Z" fill="#3F3D56"/>
</g>
<g id="Group_7">
<path id="Vector_14" d="M578.588 100.211H581.986L591.667 90.5292L592.143 86.4186C574.124 70.5142 546.623 72.2286 530.719 90.2479C526.301 95.2532 523.094 101.208 521.346 107.651C522.425 107.209 523.62 107.137 524.743 107.447L544.107 104.254C544.107 104.254 545.092 102.623 545.602 102.725C554.215 93.2651 568.711 92.1627 578.656 100.211H578.588V100.211V100.211Z" fill="#EA4335"/>
<path id="Vector_15" d="M605.46 107.651C603.235 99.4558 598.665 92.0884 592.313 86.4526L578.724 100.041C584.462 104.73 587.731 111.793 587.591 119.201V121.613C594.27 121.613 599.685 127.028 599.685 133.707C599.685 140.387 594.27 145.801 587.591 145.801H563.403L560.991 148.247V162.753L563.403 165.165H587.591C604.964 165.3 619.157 151.326 619.293 133.953C619.375 123.423 614.182 113.551 605.46 107.651V107.651V107.651Z" fill="#4285F4"/>
<path id="Vector_16" d="M539.181 165.029H563.369V145.665H539.181C537.458 145.665 535.755 145.294 534.187 144.578L530.79 145.631L521.04 155.313L520.191 158.71C525.659 162.839 532.33 165.059 539.181 165.029V165.029Z" fill="#34A853"/>
<path id="Vector_17" d="M539.181 102.216C521.808 102.319 507.808 116.487 507.912 133.861C507.97 143.562 512.501 152.694 520.191 158.609L534.221 144.578C528.134 141.828 525.429 134.664 528.179 128.578C530.93 122.491 538.093 119.786 544.18 122.536C546.862 123.747 549.01 125.896 550.222 128.578L564.252 114.547C558.283 106.743 549.007 102.18 539.181 102.215L539.181 102.216V102.216Z" fill="#FBBC05"/>
</g>
</g>
<g id="men">
<path id="Vector_18" d="M286.706 663.479C286.706 664.139 287.236 664.669 287.896 664.669H535.186C535.846 664.669 536.376 664.139 536.376 663.479C536.376 663.159 536.256 662.879 536.056 662.669H446.336C444.426 662.669 442.556 662.539 440.716 662.289H287.896C287.236 662.289 286.706 662.819 286.706 663.479V663.479Z" fill="#3F3D56"/>
<path id="Vector_19" d="M428.43 280.491C427.43 279.491 419.43 258.491 419.43 258.491L400.43 257.491L391.737 277.987L428.43 280.491Z" fill="#FFB6B6"/>
<path id="Vector_20" d="M401.474 267.166C415.599 267.166 427.05 255.715 427.05 241.59C427.05 227.465 415.599 216.015 401.474 216.015C387.35 216.015 375.899 227.465 375.899 241.59C375.899 255.715 387.35 267.166 401.474 267.166Z" fill="#FFB6B6"/>
<path id="Vector_21" d="M449.93 418.991L458.93 448.991L434.93 622.991H418.682L409.93 491.991L399.93 536.991L450.93 601.991L437.93 616.991L364.43 545.491L365.93 434.991L371.93 417.991L449.93 418.991Z" fill="#2F2E41"/>
<path id="Vector_22" d="M422.916 262.6L420.919 262.698C420.919 262.698 419.133 246.767 418.085 245.817C417.037 244.868 415.137 246.964 415.137 246.964C415.137 246.964 406.901 242.364 406.655 237.37C406.409 232.376 406.212 228.381 403.216 228.528C400.219 228.676 383.437 233.507 379.442 233.704C375.447 233.901 369.109 227.205 375.806 220.868C382.502 214.53 388.396 212.238 389.346 211.19C390.295 210.142 396.547 205.829 402.01 209.565C407.472 213.3 414.463 212.956 414.463 212.956C414.463 212.956 427.595 215.313 425.893 221.404C424.19 227.495 430.774 239.185 428.072 245.325C425.371 251.466 422.916 262.6 422.916 262.6L422.916 262.6V262.6Z" fill="#2F2E41"/>
<path id="Vector_23" d="M417.93 619.991L435.93 621.991L437.93 654.991C437.93 654.991 436.93 670.991 419.93 668.991C402.93 666.991 407.93 650.991 407.93 650.991L417.93 619.991Z" fill="#2F2E41"/>
<path id="Vector_24" d="M441.43 596.491C441.43 596.491 454.43 590.491 456.43 597.491L460.43 611.491C460.43 611.491 460.43 625.491 461.43 626.491C462.43 627.491 481.43 653.491 464.43 667.491C464.43 667.491 455.43 668.491 450.43 654.491C445.43 640.491 430.43 626.491 430.43 626.491C430.43 626.491 427.525 619.491 432.478 619.991C437.43 620.491 444.43 608.491 442.43 604.491C440.43 600.491 441.43 596.491 441.43 596.491Z" fill="#2F2E41"/>
<path id="Vector_25" d="M276.329 465.845C271.676 463.886 270.401 456.371 273.481 449.058C274.672 446.12 276.548 443.51 278.954 441.445L282.548 433.202L282.42 433.115L292.753 391.933C295.156 382.357 301.771 374.279 310.856 370.415C316.26 368.117 321.388 367.701 322.879 373.208C325.354 382.346 309.237 411.78 299.52 428.341L291.949 446.919C292.153 450.083 291.597 453.251 290.326 456.156C287.248 463.467 280.981 467.805 276.329 465.845V465.845V465.845Z" fill="#FFB6B6"/>
<path id="Vector_26" d="M392.43 274.491L425.43 275.491L457.43 289.491L452.43 372.491C452.43 372.491 458.43 391.491 455.43 394.491C452.43 397.491 455.43 410.94 453.43 411.215C451.43 411.491 453.43 425.955 453.43 425.955C453.43 425.955 425.43 416.491 401.43 422.491C377.43 428.491 369.43 418.491 369.43 418.491C369.43 418.491 363.43 394.491 363.43 389.491V287.247L392.43 274.491Z" fill="#6C63FF"/>
<path id="Vector_27" d="M368.93 286.991C368.93 286.991 354.93 282.991 347.93 292.991C340.93 302.991 336.93 302.991 336.93 315.991C336.93 315.991 295.93 373.991 297.93 379.991L288.43 395.491L312.43 408.491C312.43 408.491 320.93 399.991 320.93 391.991C320.93 383.991 344.93 361.991 344.93 361.991C344.93 361.991 365.93 334.991 366.93 324.991C367.93 314.991 368.93 286.991 368.93 286.991Z" fill="#6C63FF"/>
<g id="Group_8">
<path id="Vector_28" d="M477.513 488.474C482.555 488.209 486.305 481.574 485.889 473.649C485.767 470.482 484.887 467.389 483.325 464.631L482.742 455.657L482.892 455.619L487.149 413.374C488.139 403.551 484.658 393.708 477.424 386.99C473.12 382.994 468.437 380.862 465.166 385.536C459.737 393.292 464.907 426.449 468.427 445.325L469.244 465.369C467.977 468.276 467.426 471.445 467.635 474.609C468.049 482.531 472.472 488.738 477.513 488.474V488.474V488.474Z" fill="#FFB6B6"/>
<path id="Vector_29" d="M451.109 288.807C451.109 288.807 465.636 289.796 468.827 301.578C472.017 313.36 475.78 314.718 471.368 326.946C471.368 326.946 490.25 395.419 486.332 400.384L490.008 418.188L463.02 422.271C463.02 422.271 457.909 411.391 460.624 403.866C463.34 396.34 448.231 367.501 448.231 367.501C448.231 367.501 437.641 334.976 440.094 325.23C442.547 315.484 451.109 288.807 451.109 288.807V288.807V288.807Z" fill="#6C63FF"/>
</g>
</g>
</g>
<defs>
<linearGradient id="paint0_linear_1_2" x1="229.939" y1="508.573" x2="197.916" y2="603.178" gradientUnits="userSpaceOnUse">
<stop stop-color="#114A8B"/>
<stop offset="1" stop-color="#0669BC"/>
</linearGradient>
<linearGradient id="paint1_linear_1_2" x1="239.942" y1="552.66" x2="232.535" y2="555.165" gradientUnits="userSpaceOnUse">
<stop stop-opacity="0.3"/>
<stop offset="0.071" stop-opacity="0.2"/>
<stop offset="0.321" stop-opacity="0.1"/>
<stop offset="0.623" stop-opacity="0.05"/>
<stop offset="1" stop-opacity="0"/>
</linearGradient>
<linearGradient id="paint2_linear_1_2" x1="236.099" y1="505.727" x2="271.251" y2="599.379" gradientUnits="userSpaceOnUse">
<stop stop-color="#3CCBF4"/>
<stop offset="1" stop-color="#2892DF"/>
</linearGradient>
<clipPath id="clip0_1_2">
<rect width="672.129" height="669.164" fill="white"/>
</clipPath>
</defs>
</svg>
